<mxfile host="app.diagrams.net" agent="Mozilla/5.0 (X11; Linux x86_64; rv:138.0) Gecko/20100101 Firefox/138.0" version="27.0.5">
  <diagram name="Page-1" id="R-rpMY3tXecUD6RhKb6n">
    <mxGraphModel dx="1373" dy="839" grid="1" gridSize="10" guides="1" tooltips="1" connect="1" arrows="1" fold="1" page="1" pageScale="1" pageWidth="850" pageHeight="1100" math="0" shadow="0">
      <root>
        <mxCell id="0" />
        <mxCell id="1" parent="0" />
        <mxCell id="0hNgiGDeEQgFi20gh7ws-3" style="edgeStyle=orthogonalEdgeStyle;rounded=0;orthogonalLoop=1;jettySize=auto;html=1;" edge="1" parent="1" source="0hNgiGDeEQgFi20gh7ws-1" target="0hNgiGDeEQgFi20gh7ws-2">
          <mxGeometry relative="1" as="geometry" />
        </mxCell>
        <mxCell id="0hNgiGDeEQgFi20gh7ws-6" style="edgeStyle=orthogonalEdgeStyle;rounded=0;orthogonalLoop=1;jettySize=auto;html=1;entryX=0;entryY=0.75;entryDx=0;entryDy=0;" edge="1" parent="1" source="0hNgiGDeEQgFi20gh7ws-1" target="0hNgiGDeEQgFi20gh7ws-5">
          <mxGeometry relative="1" as="geometry" />
        </mxCell>
        <mxCell id="0hNgiGDeEQgFi20gh7ws-1" value="Object" style="rhombus;whiteSpace=wrap;html=1;" vertex="1" parent="1">
          <mxGeometry x="60" y="50" width="170" height="120" as="geometry" />
        </mxCell>
        <mxCell id="0hNgiGDeEQgFi20gh7ws-2" value="&lt;div&gt;Things that the object has i.e. variables.&lt;/div&gt;&lt;div&gt;is_holding_plate = True&lt;/div&gt;" style="rounded=1;whiteSpace=wrap;html=1;" vertex="1" parent="1">
          <mxGeometry x="360" y="40" width="160" height="70" as="geometry" />
        </mxCell>
        <mxCell id="0hNgiGDeEQgFi20gh7ws-4" value="Has:" style="text;html=1;align=center;verticalAlign=middle;resizable=0;points=[];autosize=1;strokeColor=none;fillColor=none;" vertex="1" parent="1">
          <mxGeometry x="255" y="38" width="50" height="30" as="geometry" />
        </mxCell>
        <mxCell id="0hNgiGDeEQgFi20gh7ws-5" value="&lt;div&gt;Things that the object does, i.e. methods/functions:&lt;/div&gt;&lt;div&gt;def take_order(table, order)&lt;/div&gt;" style="rounded=1;whiteSpace=wrap;html=1;" vertex="1" parent="1">
          <mxGeometry x="345" y="200" width="190" height="70" as="geometry" />
        </mxCell>
        <mxCell id="0hNgiGDeEQgFi20gh7ws-7" value="&lt;div&gt;Does:&lt;/div&gt;&lt;div&gt;&lt;br&gt;&lt;/div&gt;" style="text;html=1;align=center;verticalAlign=middle;resizable=0;points=[];autosize=1;strokeColor=none;fillColor=none;" vertex="1" parent="1">
          <mxGeometry x="280" y="270" width="50" height="40" as="geometry" />
        </mxCell>
      </root>
    </mxGraphModel>
  </diagram>
</mxfile>
